<svg id="icon" xmlns="http://www.w3.org/2000/svg" width="100" height="100" viewBox="0 0 100 100">
  <rect id="Rectangle_248" width="100" height="100" rx="50" fill="#6e32c9"/>
  <path id="Path_393" d="M37.2,60.945h-.764v3.439H37.2a1.132,1.132,0,0,0,.9-.382,1.445,1.445,0,0,0,.335-.979v-.717a1.427,1.427,0,0,0-.335-.972A1.116,1.116,0,0,0,37.2,60.945Z" fill="#f0c419"/>
  <path id="Path_394" d="M49.123,58.057H27.315v8.977H45.838ZM34.26,62.837a1.73,1.73,0,0,1-1.213.4H32.034v1.777H31.25V60.316h1.8a1.721,1.721,0,0,1,1.213.4,1.489,1.489,0,0,1,0,2.118Zm4.948.188a1.94,1.94,0,0,1-.556,1.435,1.987,1.987,0,0,1-1.455.557H35.648V60.323H37.2a1.987,1.987,0,0,1,1.455.556,1.924,1.924,0,0,1,.556,1.435Zm4.063-2.078H41.051v1.435h1.891v.63H41.051v2h-.784V60.323h3Z" fill="#f0c419"/>
  <path id="Path_395" d="M33.046,60.945H32.033V62.6h1.012a.873.873,0,0,0,.657-.235.815.815,0,0,0,.221-.59.842.842,0,0,0-.221-.6A.873.873,0,0,0,33.046,60.945Z" fill="#f0c419"/>
  <path id="Path_396" d="M59.825,24H34.293a1.389,1.389,0,0,0-1.383,1.383V56.666h2.766v-29.9H59.825v9.589h9.589V73.234H35.677V68.054H32.91v6.562A1.389,1.389,0,0,0,34.293,76H70.8a1.389,1.389,0,0,0,1.383-1.383V36.355Z" fill="#fff"/>
  <path id="Path_397" d="M39.241,39.182H55.1a.831.831,0,0,0,0-1.662H39.241a.831.831,0,0,0,0,1.662Z" fill="#fff"/>
  <path id="Path_398" d="M39.241,44.17H47.9a.831.831,0,0,0,0-1.662H39.241a.831.831,0,0,0,0,1.662Z" fill="#fff"/>
  <path id="Path_399" d="M39.241,49.157H52.056a.831.831,0,0,0,0-1.662H39.241a.831.831,0,0,0,0,1.662Z" fill="#fff"/>
  <path id="Path_400" d="M46.48,53.314a.831.831,0,0,0-.831-.831H39.241a.831.831,0,0,0,0,1.662h6.407A.832.832,0,0,0,46.48,53.314Z" fill="#fff"/>
  <path id="Path_401" d="M64.189,65.048l-2.055,2.08L60,62.349c-.008-.017-.018-.031-.027-.048a.743.743,0,0,0-.045-.079.67.67,0,0,0-.054-.069c-.016-.018-.031-.037-.048-.055a.874.874,0,0,0-.081-.068c-.012-.009-.021-.019-.034-.028L59.7,62a.8.8,0,0,0-.09-.05c-.019-.01-.038-.021-.058-.029a.694.694,0,0,0-.081-.025.744.744,0,0,0-.075-.021c-.026,0-.052-.006-.078-.008a.655.655,0,0,0-.081-.006.706.706,0,0,0-.076.007.714.714,0,0,0-.085.011c-.022,0-.044.012-.067.019a.867.867,0,0,0-.091.03l-.016.006c-.016.008-.03.018-.045.026a.729.729,0,0,0-.082.047.684.684,0,0,0-.062.05.7.7,0,0,0-.061.054.761.761,0,0,0-.061.073c-.011.013-.024.025-.034.039l-2.613,3.806-.643-.66s-.01-.006-.014-.01a.915.915,0,0,0-.09-.081.848.848,0,0,0-.161-.091l-.027-.009a.823.823,0,0,0-.285-.059l-.024,0a.83.83,0,0,0-.289.052l-.022.011a.8.8,0,0,0-.255.165s-.006,0-.009.006-.007.012-.012.017a.85.85,0,0,0-.078.087l-1.524,2.078a.831.831,0,1,0,1.34.983l.944-1.287.661.679h0l0,0,0,0a.88.88,0,0,0,.121.1.784.784,0,0,0,.1.051.75.75,0,0,0,.081.039.817.817,0,0,0,.284.057h0a.853.853,0,0,0,.272-.052c.019-.007.038-.013.058-.022a.819.819,0,0,0,.236-.153s.01,0,.013-.009.012-.019.019-.028a.833.833,0,0,0,.085-.1l2.347-3.419L61.1,68.894h0l.01.022a.817.817,0,0,0,.16.231c.006.007.008.015.014.021s.031.017.044.029a.839.839,0,0,0,.188.124c.026.012.049.025.076.034a.816.816,0,0,0,.275.053h0a.819.819,0,0,0,.292-.058c.011,0,.021-.006.031-.01l.016-.006a.822.822,0,0,0,.239-.165s.01,0,.013-.009l2.909-2.944a.831.831,0,0,0-1.181-1.169Z" fill="#f0c419"/>
  <path id="Path_402" d="M37.744,28.907V32.84h-.712V28.907Z" fill="#f0c419"/>
  <path id="Path_403" d="M41.747,28.907V32.84h-.634L39.26,30.161h-.033V32.84h-.712V28.907h.638L41,31.588h.035V28.907Z" fill="#f0c419"/>
  <path id="Path_404" d="M43.05,28.907,44.074,32h.04l1.022-3.1h.784L44.533,32.84h-.88l-1.385-3.933Z" fill="#f0c419"/>
  <path id="Path_405" d="M49.74,30.874a2.313,2.313,0,0,1-.238,1.089,1.686,1.686,0,0,1-.645.691,1.9,1.9,0,0,1-1.849,0,1.716,1.716,0,0,1-.645-.693,2.618,2.618,0,0,1,0-2.174,1.7,1.7,0,0,1,.645-.693,1.9,1.9,0,0,1,1.849,0,1.684,1.684,0,0,1,.645.693A2.3,2.3,0,0,1,49.74,30.874Zm-.716,0a1.813,1.813,0,0,0-.14-.755,1.039,1.039,0,0,0-.384-.467,1.086,1.086,0,0,0-1.133,0,1.051,1.051,0,0,0-.386.467,2.135,2.135,0,0,0,0,1.511,1.065,1.065,0,0,0,.386.467,1.1,1.1,0,0,0,1.133,0,1.053,1.053,0,0,0,.384-.467A1.827,1.827,0,0,0,49.024,30.874Z" fill="#f0c419"/>
  <path id="Path_406" d="M51.126,28.907V32.84h-.713V28.907Z" fill="#f0c419"/>
  <path id="Path_407" d="M55.264,30.234h-.718a.9.9,0,0,0-.113-.313.843.843,0,0,0-.205-.234.857.857,0,0,0-.28-.144,1.093,1.093,0,0,0-.336-.05,1.018,1.018,0,0,0-.568.161,1.059,1.059,0,0,0-.388.469,1.8,1.8,0,0,0-.14.751,1.839,1.839,0,0,0,.14.76,1.064,1.064,0,0,0,.388.465,1.043,1.043,0,0,0,.567.156,1.142,1.142,0,0,0,.33-.046.906.906,0,0,0,.278-.14.823.823,0,0,0,.209-.227.856.856,0,0,0,.119-.307l.718,0a1.573,1.573,0,0,1-.522.96,1.6,1.6,0,0,1-.5.292,1.875,1.875,0,0,1-.639.1,1.789,1.789,0,0,1-.926-.24,1.675,1.675,0,0,1-.641-.693,2.341,2.341,0,0,1-.234-1.087,2.317,2.317,0,0,1,.236-1.087,1.687,1.687,0,0,1,.643-.693,1.78,1.78,0,0,1,.922-.24,1.955,1.955,0,0,1,.611.092,1.566,1.566,0,0,1,.5.271,1.44,1.44,0,0,1,.363.434A1.615,1.615,0,0,1,55.264,30.234Z" fill="#f0c419"/>
  <path id="Path_408" d="M55.917,32.84V28.907h2.558v.6H56.63v1.068h1.713v.6H56.63v1.073H58.49v.6Z" fill="#f0c419"/>
</svg>
