<svg viewBox="0 0 56 56" fill="none" xmlns="http://www.w3.org/2000/svg">
<g id="f852923071783ebcea34226ead56ec1f 3">
<g id="Group">
<g id="Group_2">
<path id="Vector" d="M26.0985 0.574093C25.8857 0.596493 25.226 0.674892 24.6447 0.742092C20.004 1.26793 15.2737 3.19098 11.3369 6.1433C10.0175 7.12778 7.78091 9.28601 6.69619 10.6278C3.47563 14.5864 1.41819 19.3951 0.70195 24.6619C0.51211 26.0373 0.51211 29.9959 0.70195 31.3719C1.38403 36.3368 3.18443 40.7765 6.10315 44.6573C7.09827 45.9767 9.06667 48.0235 10.442 49.1754C14.3447 52.4407 19.299 54.5878 24.6442 55.3147C26.0195 55.5045 29.9787 55.5045 31.3541 55.3147C35.637 54.7334 39.786 53.19 43.1522 50.9534C49.8733 46.4801 54.1786 39.5579 55.2969 31.3724C55.4867 29.9971 55.4867 26.0384 55.2969 24.6625C54.7156 20.3791 53.1723 16.23 50.9356 12.8644C46.5407 6.24409 39.7082 1.95001 31.7455 0.775692C30.6614 0.618893 26.8814 0.484489 26.0985 0.574093ZM32.0815 2.84433C35.7943 3.48161 39.1045 4.77914 42.0456 6.75817C48.1625 10.8512 52.0545 16.9457 53.2395 24.2705C53.5077 26.0037 53.5189 29.9287 53.2395 31.7073C52.647 35.5203 51.2935 39.0321 49.236 42.1076C45.1654 48.1909 38.9925 52.1159 31.6901 53.2567C29.9121 53.5361 25.9865 53.5249 24.2533 53.2567C20.4509 52.6418 16.9509 51.2883 13.909 49.2532C6.97563 44.6125 2.83835 37.2093 2.53651 28.9118C2.32371 22.7719 4.23611 16.9345 8.07155 12.0927C8.87683 11.0752 11.0575 8.89458 12.075 8.08929C15.8774 5.08097 20.5293 3.16857 25.3156 2.64329C26.8702 2.46409 30.527 2.57609 32.0815 2.84433Z" fill="#6E32C9"/>
<path id="Vector_2" d="M27.496 14.2616C27.3728 14.3064 27.1494 14.4851 26.9926 14.6531L26.7131 14.9549L26.6795 20.8707L26.6459 26.7754L20.7301 26.809L14.8031 26.8426L14.4452 27.2116C14.1322 27.5247 14.0762 27.6479 14.0762 28.1283C14.0762 28.6094 14.1322 28.732 14.4452 29.0456L14.8031 29.4147L20.7301 29.4483L26.6571 29.4819V35.2633C26.6571 39.6582 26.6907 41.1119 26.8027 41.3242C26.8811 41.4698 27.1158 41.7156 27.3286 41.8606C27.8544 42.2185 28.4581 42.1401 28.9386 41.6702L29.2852 41.3236L29.3188 35.3966L29.3524 29.4807L35.2682 29.4471L41.1953 29.4135L41.5531 29.0445C41.8661 28.7315 41.9222 28.6083 41.9222 28.1272C41.9222 27.6462 41.8661 27.5235 41.5531 27.2105L41.1953 26.8415L35.2682 26.8079L29.3412 26.7743V20.9928C29.3412 16.5979 29.3076 15.1442 29.1956 14.9314C28.8943 14.34 28.0778 14.0152 27.496 14.2616Z" fill="#6E32C9"/>
</g>
</g>
</g>
</svg>
