<svg viewBox="0 0 10 12" fill="none" xmlns="http://www.w3.org/2000/svg">
<path d="M8.59389 1.46289H6.58299V1.09755C6.58309 0.953386 6.55477 0.81062 6.49965 0.677415C6.44452 0.544209 6.36368 0.423177 6.26175 0.321241C6.15981 0.219304 6.03878 0.138463 5.90557 0.0833421C5.77237 0.0282207 5.6296 -9.9812e-05 5.48544 2.64305e-07H4.02256C3.73167 2.64305e-07 3.4527 0.115554 3.24701 0.321241C3.04133 0.526928 2.92577 0.805899 2.92577 1.09678V1.46213H0.913353C0.79341 1.46213 0.674641 1.48575 0.563828 1.53165C0.453015 1.57755 0.352327 1.64483 0.267514 1.72964C0.182701 1.81445 0.115424 1.91514 0.0695236 2.02595C0.0236233 2.13677 0 2.25553 0 2.37548V3.10692C0 3.20381 0.0384897 3.29674 0.107004 3.36526C0.175519 3.43377 0.268446 3.47226 0.365341 3.47226H9.14266C9.19064 3.47226 9.23814 3.46281 9.28247 3.44445C9.32679 3.42609 9.36707 3.39918 9.40099 3.36526C9.43492 3.33133 9.46183 3.29106 9.48019 3.24673C9.49855 3.20241 9.508 3.1549 9.508 3.10692V2.377C9.5081 2.25693 9.48452 2.13802 9.43862 2.02707C9.39272 1.91611 9.32539 1.8153 9.24049 1.7304C9.15558 1.6455 9.05477 1.57817 8.94382 1.53227C8.83287 1.48636 8.71396 1.46279 8.59389 1.46289ZM3.65341 1.09678C3.65361 0.999952 3.69217 0.907142 3.76064 0.838671C3.82911 0.7702 3.92192 0.731644 4.01875 0.731443H5.48164C5.57847 0.731644 5.67128 0.7702 5.73975 0.838671C5.80822 0.907142 5.84678 0.999952 5.84698 1.09678V1.46213H3.65341V1.09678Z" fill="#FF521D"/>
<path d="M0.693396 4.20508C0.677944 4.20506 0.66265 4.20819 0.648439 4.21425C0.634228 4.22032 0.621397 4.22921 0.610723 4.24038C0.600048 4.25156 0.591753 4.26477 0.586339 4.27924C0.580926 4.29372 0.578505 4.30914 0.579226 4.32457L0.883678 10.6564C0.896801 10.9381 1.01804 11.204 1.22218 11.3986C1.42632 11.5933 1.69764 11.7017 1.9797 11.7014H7.53593C7.81799 11.7017 8.08931 11.5933 8.29345 11.3986C8.49759 11.204 8.61883 10.9381 8.63195 10.6564L8.9364 4.32457C8.93712 4.30914 8.9347 4.29372 8.92929 4.27924C8.92388 4.26477 8.91558 4.25156 8.90491 4.24038C8.89423 4.22921 8.8814 4.22032 8.86719 4.21425C8.85298 4.20819 8.83768 4.20506 8.82223 4.20508H0.693396ZM6.21613 5.11843C6.21613 5.02143 6.25467 4.92841 6.32325 4.85982C6.39184 4.79124 6.48486 4.75271 6.58186 4.75271C6.67885 4.75271 6.77187 4.79124 6.84046 4.85982C6.90904 4.92841 6.94758 5.02143 6.94758 5.11843V9.87243C6.94758 9.96942 6.90904 10.0624 6.84046 10.131C6.77187 10.1996 6.67885 10.2382 6.58186 10.2382C6.48486 10.2382 6.39184 10.1996 6.32325 10.131C6.25467 10.0624 6.21613 9.96942 6.21613 9.87243V5.11843ZM4.38943 5.11843C4.38943 5.02143 4.42796 4.92841 4.49655 4.85982C4.56513 4.79124 4.65816 4.75271 4.75515 4.75271C4.85215 4.75271 4.94517 4.79124 5.01375 4.85982C5.08234 4.92841 5.12087 5.02143 5.12087 5.11843V9.87243C5.12087 9.96942 5.08234 10.0624 5.01375 10.131C4.94517 10.1996 4.85215 10.2382 4.75515 10.2382C4.65816 10.2382 4.56513 10.1996 4.49655 10.131C4.42796 10.0624 4.38943 9.96942 4.38943 9.87243V5.11843ZM2.56273 5.11843C2.56273 5.02143 2.60125 4.92841 2.66984 4.85982C2.73843 4.79124 2.83145 4.75271 2.92845 4.75271C3.02544 4.75271 3.11847 4.79124 3.18705 4.85982C3.25564 4.92841 3.29417 5.02143 3.29417 5.11843V9.87243C3.29417 9.96942 3.25564 10.0624 3.18705 10.131C3.11847 10.1996 3.02544 10.2382 2.92845 10.2382C2.83145 10.2382 2.73843 10.1996 2.66984 10.131C2.60125 10.0624 2.56273 9.96942 2.56273 9.87243V5.11843Z" fill="#FF521D"/>
</svg>
