<svg xmlns="http://www.w3.org/2000/svg" viewBox="0 0 11.924 11.904">
  <g id="Edit_icon__the_Noun_Project_30184_" data-name="Edit_icon_(the_Noun_Project_30184)" transform="translate(-5 -5.076)">
    <path id="Path_172" data-name="Path 172" d="M14.662,28.868H5.426A.426.426,0,0,1,5,28.442V19.206a.426.426,0,0,1,.426-.426h4.618a.426.426,0,0,1,0,.852H5.853v8.383h8.383V23.824a.426.426,0,1,1,.852,0v4.618A.426.426,0,0,1,14.662,28.868Z" transform="translate(0 -11.889)"/>
    <path id="Path_173" data-name="Path 173" d="M35.841,6.528,34.513,5.2a.426.426,0,0,0-.6,0l-1.2,1.2-4.641,4.64a.429.429,0,0,0-.091.134l-.993,2.32a.426.426,0,0,0,.391.594.445.445,0,0,0,.169-.034l2.32-.993A.43.43,0,0,0,30,12.973l4.64-4.64,1.2-1.2A.428.428,0,0,0,35.841,6.528Zm-7.654,6.327.388-.9.516.516Zm1.41-.685-.725-.725,4.18-4.18.725.725Zm4.582-4.582-.725-.725.757-.757.725.723Z" transform="translate(-19.042 0)"/>
  </g>
</svg>
