<svg width="100" height="100" viewBox="0 0 100 100" fill="none" xmlns="http://www.w3.org/2000/svg">
<rect width="100" height="100" rx="50" fill="#6E32C9"/>
<ellipse cx="60.5533" cy="36.636" rx="11.4459" ry="10.636" fill="#FAFAFA"/>
<path d="M59.4529 42.8953V30.6816H60.2949V42.8953H59.4529ZM61.8814 34.5891C61.8335 34.1724 61.6316 33.848 61.2756 33.6158C60.923 33.3836 60.4644 33.2675 59.8996 33.2675C59.5026 33.2675 59.162 33.3232 58.8779 33.4345C58.5938 33.5458 58.3765 33.6969 58.2259 33.8877C58.0753 34.0786 57.9982 34.2964 57.9948 34.5413C57.9948 34.7449 58.0445 34.9214 58.1437 35.0709C58.2464 35.2204 58.385 35.3476 58.5596 35.4526C58.7341 35.5544 58.9275 35.6403 59.1397 35.7102C59.352 35.7802 59.5659 35.839 59.7815 35.8868L60.7673 36.1158C61.1643 36.2016 61.546 36.3177 61.9122 36.464C62.2819 36.6103 62.6122 36.7948 62.9031 37.0175C63.1975 37.2401 63.4302 37.5089 63.6014 37.8238C63.7725 38.1386 63.8581 38.5076 63.8581 38.9306C63.8581 39.5031 63.7006 40.0073 63.3857 40.443C63.0708 40.8756 62.6156 41.2143 62.02 41.4592C61.4279 41.701 60.7108 41.8218 59.8688 41.8218C59.0508 41.8218 58.3405 41.7041 57.7381 41.4688C57.1391 41.2334 56.6702 40.8899 56.3313 40.4382C55.9959 39.9866 55.8145 39.4363 55.7871 38.7875H57.6611C57.6885 39.1278 57.8014 39.4109 58 39.6367C58.1985 39.8625 58.4569 40.0311 58.7752 40.1424C59.097 40.2538 59.4564 40.3094 59.8534 40.3094C60.2676 40.3094 60.6304 40.2522 60.9419 40.1377C61.2568 40.02 61.5032 39.8578 61.6812 39.651C61.8592 39.4411 61.9499 39.1962 61.9533 38.9163C61.9499 38.6619 61.8694 38.4519 61.712 38.2865C61.5545 38.118 61.3338 37.978 61.0497 37.8667C60.769 37.7522 60.4404 37.6504 60.0639 37.5614L58.8676 37.2751C58.0017 37.0684 57.3171 36.7551 56.814 36.3352C56.3142 35.9122 56.0644 35.3508 56.0644 34.6511C56.0644 34.0754 56.2321 33.5712 56.5675 33.1387C56.9064 32.7061 57.3667 32.3706 57.9486 32.132C58.5305 31.8903 59.1894 31.7694 59.9253 31.7694C60.6715 31.7694 61.3252 31.8903 61.8866 32.132C62.4513 32.3706 62.8946 32.7029 63.2163 33.1291C63.5381 33.5522 63.7041 34.0388 63.7143 34.5891H61.8814Z" fill="#E7B700"/>
<path d="M28.6699 46.266V28.1992H35.5861C36.8917 28.1992 37.9768 28.4051 38.8413 28.8167C39.7117 29.2225 40.3615 29.7783 40.7909 30.484C41.2261 31.1898 41.4437 31.9896 41.4437 32.8835C41.4437 33.6187 41.3025 34.2479 41.0202 34.7713C40.7379 35.2889 40.3586 35.7094 39.8822 36.0328C39.4059 36.3563 38.8736 36.5886 38.2855 36.7298V36.9062C38.9266 36.9415 39.5411 37.1385 40.1292 37.4972C40.7232 37.8501 41.2084 38.35 41.5848 38.9969C41.9612 39.6438 42.1494 40.426 42.1494 41.3435C42.1494 42.2786 41.923 43.1196 41.4701 43.8665C41.0173 44.6075 40.3351 45.1927 39.4235 45.622C38.5119 46.0513 37.3651 46.266 35.9831 46.266H28.6699ZM31.9428 43.5312H35.4626C36.6506 43.5312 37.5063 43.3048 38.0297 42.852C38.559 42.3932 38.8236 41.8051 38.8236 41.0876C38.8236 40.5525 38.6913 40.0702 38.4267 39.6409C38.162 39.2057 37.7856 38.8646 37.2975 38.6176C36.8094 38.3647 36.2271 38.2383 35.5508 38.2383H31.9428V43.5312ZM31.9428 35.8829H35.1803C35.7449 35.8829 36.2536 35.78 36.7064 35.5741C37.1593 35.3624 37.5151 35.0654 37.7739 34.6831C38.0385 34.295 38.1708 33.8363 38.1708 33.307C38.1708 32.6071 37.9238 32.0308 37.4298 31.5779C36.9417 31.1251 36.2154 30.8986 35.2509 30.8986H31.9428V35.8829Z" fill="white"/>
<ellipse cx="60.5552" cy="63.4388" rx="11.4459" ry="10.636" fill="#FAFAFA"/>
<path d="M59.4549 69.698V57.4844H60.2969V69.698H59.4549ZM61.8834 61.3918C61.8355 60.9751 61.6335 60.6507 61.2775 60.4185C60.925 60.1863 60.4663 60.0702 59.9016 60.0702C59.5045 60.0702 59.164 60.1259 58.8799 60.2372C58.5958 60.3485 58.3784 60.4996 58.2278 60.6905C58.0772 60.8813 58.0002 61.0992 57.9968 61.3441C57.9968 61.5476 58.0464 61.7242 58.1457 61.8737C58.2483 62.0231 58.387 62.1504 58.5615 62.2553C58.7361 62.3571 58.9295 62.443 59.1417 62.513C59.3539 62.5829 59.5678 62.6418 59.7835 62.6895L60.7692 62.9185C61.1663 63.0044 61.5479 63.1205 61.9142 63.2668C62.2838 63.4131 62.6141 63.5976 62.9051 63.8202C63.1994 64.0428 63.4322 64.3116 63.6033 64.6265C63.7745 64.9414 63.86 65.3103 63.86 65.7334C63.86 66.3059 63.7026 66.81 63.3877 67.2457C63.0728 67.6783 62.6176 68.0171 62.022 68.262C61.4298 68.5037 60.7128 68.6246 59.8708 68.6246C59.0527 68.6246 58.3425 68.5069 57.7401 68.2715C57.1411 68.0361 56.6721 67.6926 56.3333 67.241C55.9979 66.7893 55.8164 66.2391 55.7891 65.5902H57.663C57.6904 65.9306 57.8034 66.2136 58.0019 66.4395C58.2004 66.6653 58.4589 66.8339 58.7772 66.9452C59.0989 67.0565 59.4583 67.1122 59.8554 67.1122C60.2695 67.1122 60.6323 67.0549 60.9438 66.9404C61.2587 66.8227 61.5052 66.6605 61.6831 66.4538C61.8611 66.2438 61.9518 65.9989 61.9553 65.719C61.9518 65.4646 61.8714 65.2547 61.7139 65.0893C61.5565 64.9207 61.3357 64.7808 61.0516 64.6694C60.771 64.5549 60.4424 64.4531 60.0659 64.3641L58.8696 64.0778C58.0036 63.8711 57.3191 63.5578 56.8159 63.138C56.3162 62.7149 56.0663 62.1535 56.0663 61.4538C56.0663 60.8781 56.234 60.374 56.5695 59.9414C56.9083 59.5089 57.3687 59.1733 57.9506 58.9347C58.5324 58.693 59.1913 58.5722 59.9272 58.5722C60.6734 58.5722 61.3272 58.693 61.8885 58.9347C62.4533 59.1733 62.8965 59.5057 63.2183 59.9319C63.54 60.3549 63.706 60.8415 63.7163 61.3918H61.8834Z" fill="#E7B700"/>
<path d="M39.562 60.1179C39.415 59.6416 39.2121 59.2152 38.9533 58.8388C38.7004 58.4565 38.3946 58.1301 38.0359 57.8596C37.683 57.5891 37.2772 57.3862 36.8185 57.2509C36.3598 57.1097 35.8599 57.0392 35.3188 57.0392C34.3484 57.0392 33.4839 57.2832 32.7252 57.7714C31.9666 58.2595 31.3697 58.977 30.9345 59.9238C30.5051 60.8648 30.2905 62.0116 30.2905 63.3643C30.2905 64.7287 30.5051 65.8843 30.9345 66.8312C31.3638 67.7781 31.9607 68.4985 32.7252 68.9925C33.4898 69.4806 34.3778 69.7247 35.3894 69.7247C36.3068 69.7247 37.1008 69.5483 37.7712 69.1954C38.4476 68.8425 38.968 68.3426 39.3327 67.6957C39.6973 67.0429 39.8796 66.2784 39.8796 65.4021L40.6206 65.5168H35.7158V62.9585H43.0466V65.1286C43.0466 66.6754 42.7172 68.0133 42.0586 69.1425C41.3999 70.2716 40.4942 71.142 39.3415 71.7537C38.1888 72.3594 36.8655 72.6623 35.3717 72.6623C33.7074 72.6623 32.2459 72.2889 30.9874 71.542C29.7347 70.7892 28.7555 69.7218 28.0498 68.3397C27.3499 66.9518 27 65.3051 27 63.3996C27 61.9411 27.2058 60.6384 27.6175 59.4916C28.0351 58.3448 28.6173 57.3715 29.3642 56.5716C30.1111 55.7659 30.9874 55.1543 31.9931 54.7367C32.9987 54.3133 34.0926 54.1016 35.2747 54.1016C36.2745 54.1016 37.2066 54.2486 38.0712 54.5426C38.9357 54.8308 39.7032 55.2425 40.3736 55.7777C41.0499 56.3129 41.6057 56.948 42.0409 57.6832C42.4761 58.4183 42.7613 59.2299 42.8966 60.1179H39.562Z" fill="white"/>
</svg>
