<svg viewBox="0 0 21 21" fill="none" xmlns="http://www.w3.org/2000/svg">
<g clip-path="url(#clip0_1194_5)">
<path d="M10.5 0C8.4233 0 6.39323 0.615814 4.66652 1.76957C2.9398 2.92332 1.59399 4.5632 0.79927 6.48182C0.00454945 8.40045 -0.203386 10.5116 0.201759 12.5484C0.606904 14.5852 1.60693 16.4562 3.07538 17.9246C4.54383 19.3931 6.41476 20.3931 8.45156 20.7982C10.4884 21.2034 12.5996 20.9955 14.5182 20.2007C16.4368 19.406 18.0767 18.0602 19.2304 16.3335C20.3842 14.6068 21 12.5767 21 10.5C20.997 7.71616 19.8897 5.04721 17.9213 3.07874C15.9528 1.11026 13.2838 0.00303984 10.5 0V0ZM10.5 20.0156C8.61799 20.0156 6.77824 19.4575 5.21341 18.412C3.64857 17.3664 2.42893 15.8802 1.70871 14.1415C0.988498 12.4027 0.800057 10.4894 1.16722 8.64359C1.53438 6.79774 2.44066 5.10222 3.77144 3.77144C5.10223 2.44065 6.79775 1.53438 8.6436 1.16722C10.4894 0.800053 12.4027 0.988494 14.1415 1.70871C15.8802 2.42892 17.3664 3.64857 18.412 5.2134C19.4575 6.77824 20.0156 8.61799 20.0156 10.5C20.0126 13.0228 19.0091 15.4413 17.2252 17.2252C15.4413 19.0091 13.0228 20.0126 10.5 20.0156Z" fill="#FF521D"/>
<path d="M15.1135 5.87167C15.0212 5.7795 14.8961 5.72773 14.7657 5.72773C14.6352 5.72773 14.5101 5.7795 14.4178 5.87167L10.5 9.80261L6.58386 5.86511C6.4914 5.77265 6.36599 5.7207 6.23523 5.7207C6.10447 5.7207 5.97906 5.77265 5.8866 5.86511C5.79413 5.95757 5.74219 6.08298 5.74219 6.21374C5.74219 6.34451 5.79413 6.46991 5.8866 6.56238L9.80441 10.4999L5.8866 14.4374C5.79435 14.5298 5.74261 14.6552 5.74277 14.7858C5.74292 14.9164 5.79495 15.0416 5.88742 15.1338C5.97988 15.2261 6.1052 15.2778 6.23581 15.2777C6.36642 15.2775 6.49162 15.2255 6.58386 15.133L10.5 11.1971L14.4178 15.1346C14.5103 15.2271 14.6357 15.2791 14.7665 15.2791C14.8972 15.2791 15.0226 15.2271 15.1151 15.1346C15.2076 15.0422 15.2595 14.9168 15.2595 14.786C15.2595 14.6552 15.2076 14.5298 15.1151 14.4374L11.1957 10.4999L15.1151 6.56238C15.2056 6.47009 15.2561 6.34592 15.2558 6.21669C15.2555 6.08746 15.2044 5.96354 15.1135 5.87167Z" fill="#FF521D"/>
</g>
<defs>
<clipPath id="clip0_1194_5">
<rect width="21" height="21" fill="white"/>
</clipPath>
</defs>
</svg>
