<svg width="100" height="100" viewBox="0 0 100 100" fill="none" xmlns="http://www.w3.org/2000/svg">
    <path d="M100 50C100 22.3858 77.6142 0 50 0C22.3858 0 0 22.3858 0 50C0 77.6142 22.3858 100 50 100C77.6142 100 100 77.6142 100 50Z" fill="#6E32C9"/>
    <path d="M63.6029 48.1277C63.9805 47.5827 64.1824 46.9355 64.1819 46.2729V44.0911C64.1819 42.2837 62.7165 40.8184 60.9091 40.8184H58.7273C56.92 40.8184 55.4546 42.2837 55.4546 44.0911V46.2729C55.4541 46.9355 55.6559 47.5827 56.0336 48.1277C56.2286 48.2459 56.3809 48.4222 56.4704 48.6316C57.076 49.217 57.8852 49.5446 58.7273 49.5456H60.9091C61.7529 49.5451 62.5636 49.2164 63.1693 48.6294C63.2582 48.4212 63.4095 48.2459 63.6029 48.1277Z" fill="#F0C419"/>
    <path d="M69.6363 35.3633H32.5454V63.7269H69.6363V35.3633ZM35.8181 38.636H44.5454V40.8178H35.8181V38.636ZM35.8181 41.9087H48.909V44.0906H35.8181V41.9087ZM35.8181 51.7269H42.3636V53.9087H35.8181V51.7269ZM35.8181 54.9996H44.5454V57.1815H35.8181V54.9996ZM46.7272 60.4542H35.8181V58.2724H46.7272V60.4542ZM48.909 50.636H35.8181V48.4542H48.909V50.636ZM51.0909 47.3633H35.8181V45.1815H51.0909V47.3633ZM66.7695 60.3253C66.3455 60.5522 65.8229 60.4744 65.4831 60.1346L64.0726 58.7241L62.6621 60.1346C62.3776 60.419 61.9595 60.524 61.5743 60.4073C61.1892 60.2912 60.8995 59.9716 60.8206 59.5769L59.8181 54.5634L58.8156 59.5817C58.7368 59.9759 58.447 60.2955 58.0619 60.4121C57.6768 60.5288 57.2587 60.4238 56.9742 60.1388L55.5637 58.7241L54.1532 60.1346C53.8133 60.4728 53.2929 60.5495 52.87 60.3237C52.447 60.0984 52.2212 59.6232 52.3128 59.1529L54.2688 49.4002C53.621 48.4856 53.2732 47.3931 53.2727 46.2724V44.0906C53.2764 41.0794 55.716 38.6397 58.7272 38.636H60.909C63.9202 38.6397 66.3599 41.0794 66.3636 44.0906V46.2724C66.3625 47.3915 66.0147 48.4835 65.3675 49.3965L67.3235 59.1449C67.4204 59.6179 67.1951 60.0978 66.7695 60.3253Z" fill="#F0C419"/>
    <path d="M61.4644 51.6717L62.5611 57.1523L63.3015 56.4114C63.6169 56.0966 64.092 56.005 64.5016 56.1802L63.4741 51.0527C62.8514 51.3894 62.1685 51.5993 61.4644 51.6717Z" fill="#F0C419"/>
    <path d="M55.1338 56.1799C55.5434 56.0046 56.0186 56.0962 56.3339 56.411L57.0743 57.152L58.1711 51.6713C57.4669 51.6005 56.7835 51.3917 56.1602 51.0566L55.1338 56.1799Z" fill="#F0C419"/>
    <path d="M65.2729 27.7276H72.4576L65.2729 20.543V27.7276Z" fill="#F0C419"/>
    <path d="M26 76.8182V80.0909H74V29.9091H64.1818C63.5794 29.9091 63.0909 29.4206 63.0909 28.8182V19H26V22.2727H28.1818V24.4545H26V28.8182H28.1818V31H26V35.3636H28.1818V37.5455H26V41.9091H28.1818V44.0909H26V48.4545H28.1818V50.6364H26V55H28.1818V57.1818H26V61.5455H28.1818V63.7273H26V68.0909H28.1818V70.2727H26V74.6364H28.1818V76.8182H26ZM30.3636 34.2727C30.3636 33.6703 30.8521 33.1818 31.4545 33.1818H70.7273C71.3297 33.1818 71.8182 33.6703 71.8182 34.2727V64.8182C71.8182 65.4206 71.3297 65.9091 70.7273 65.9091H31.4545C30.8521 65.9091 30.3636 65.4206 30.3636 64.8182V34.2727Z" fill="white"/>
</svg>
