<svg xmlns="http://www.w3.org/2000/svg" viewBox="0 0 511.998 512.001">
  <g id="cancel-svgrepo-com" transform="translate(-0.001)">
    <g id="Group_689" data-name="Group 689" transform="translate(0.001)">
      <path id="Path_373" data-name="Path 373" d="M256,0C114.616,0,0,114.617,0,256S114.615,512,255.994,512,512,397.374,512,256,397.375,0,256,0Zm96.569,353.569a26.161,26.161,0,0,1-36.992,0l-58.251-58.251-60.9,60.9a26.158,26.158,0,0,1-36.987-37l60.9-60.9-56.7-56.7a26.161,26.161,0,0,1,37-37l56.7,56.7,54.051-54.055a26.159,26.159,0,0,1,36.992,37l-54.046,54.051L352.57,316.57A26.162,26.162,0,0,1,352.566,353.569Z" transform="translate(-0.001)"/>
    </g>
  </g>
</svg>
