<svg xmlns="http://www.w3.org/2000/svg" viewBox="0 0 437.777 512.001">
  <g id="delete-svgrepo-com_1_" data-name="delete-svgrepo-com (1)" transform="translate(-34.285)">
    <path id="Path_369" data-name="Path 369" d="M348.2,232.744v-94.19h21.649V41.133H263.35V0H140.781V41.133H34.285v97.421H55.934V468.7H230.775A139.711,139.711,0,0,0,331.96,512c77.253,0,140.1-62.85,140.1-140.1C472.062,300.139,417.828,240.818,348.2,232.744Zm-32.474,0A139.094,139.094,0,0,0,261.6,250.787V138.554h54.123ZM173.255,32.474h57.621v8.66H173.255ZM66.759,73.607H337.372v32.474H66.759Zm21.649,64.947H142.53V436.229H88.408ZM175,436.229V138.554h54.123v138.3a139.851,139.851,0,0,0-21.6,159.372Zm156.956,43.3A107.628,107.628,0,1,1,439.588,371.9,107.749,107.749,0,0,1,331.96,479.527Z" transform="translate(0)"/>
    <path id="Path_370" data-name="Path 370" d="M349.433,289.395l-35.681,35.681-35.68-35.681L255.11,312.357l35.681,35.681-35.681,35.68,22.962,22.962L313.752,371l35.681,35.681,22.962-22.962-35.681-35.68,35.681-35.681Z" transform="translate(18.208 23.862)"/>
  </g>
</svg>
