<svg xmlns="http://www.w3.org/2000/svg" viewBox="0 0 980.05 979.95">
  <g id="_7070f9088e456682f0f84f815ebda761" data-name="7070f9088e456682f0f84f815ebda761" transform="translate(-9.975 -10.075)">
    <g id="Group_674" data-name="Group 674">
      <path id="Path_361" data-name="Path 361" d="M976.3,97,908.6,30.1c-18.3-18.3-48.6-18.3-67.7,0L503.2,367.8l-344-344c-18.3-18.3-48.6-18.3-67.7,0L23.7,91.4c-18.3,18.3-18.3,48.6,0,67.7L367,502.4,30.1,840.9c-18.3,18.3-18.3,48.6,0,67.7l67.7,67.7c18.3,18.3,48.6,18.3,67.7,0L503.2,638.6,840.9,976.3c18.3,18.3,48.6,18.3,67.7,0l67.7-67.7c18.3-18.3,18.3-48.6,0-67.7L637.8,503.2,975.5,165.5A48.84,48.84,0,0,0,976.3,97Z"/>
    </g>
  </g>
</svg>
