<svg xmlns="http://www.w3.org/2000/svg" viewBox="0 0 132.74 93.16">
  <g id="_00d0f5650895794e34dd306f93851ac1" transform="translate(-10 -156.115)">
    <g id="Group_675" transform="translate(10 156.115)">
      <g id="Group_674">
        <path id="Path_360" d="M140,249.275a2.72,2.72,0,0,1-2.438-1.5c-.163-.3-12.665-23.5-64.88-24.3v23.067a2.725,2.725,0,0,1-4.389,2.167L11.07,204.862a2.73,2.73,0,0,1,0-4.334l57.214-43.845a2.725,2.725,0,0,1,4.389,2.167v24.313c1.382-.081,3.183-.163,5.31-.163,19.478,0,64.758,6.19,64.758,63.539a2.711,2.711,0,0,1-2.113,2.655A2.383,2.383,0,0,1,140,249.275Z" transform="translate(-10 -156.115)" fill="#ff521d"/>
      </g>
    </g>
  </g>
</svg>
