<svg width="100" height="100" viewBox="0 0 100 100" fill="none" xmlns="http://www.w3.org/2000/svg">
<rect width="100" height="100" rx="50" fill="#6E32C9"/>
<path d="M23.1328 46.25H73.2459V66.6085C73.2459 68.6852 72.421 70.6768 70.9525 72.1452C69.4841 73.6137 67.4925 74.4386 65.4158 74.4386H30.963C28.8863 74.4386 26.8947 73.6137 25.4262 72.1452C23.9578 70.6768 23.1328 68.6852 23.1328 66.6085V46.25V46.25Z" fill="url(#paint0_linear_2156_15932)"/>
<path d="M66.9656 33.4551C63.8734 33.5671 60.9453 34.8742 58.7974 37.1013C56.6495 39.3284 55.4492 42.302 55.4492 45.3961C55.4492 48.4902 56.6495 51.4638 58.7974 53.6909C60.9453 55.918 63.8734 57.2251 66.9656 57.3371C69.1818 57.3407 71.3537 56.7162 73.2297 55.5362V35.256C71.3506 34.083 69.1807 33.4592 66.9656 33.4551V33.4551Z" fill="url(#paint1_linear_2156_15932)"/>
<path d="M73.2459 46.25H23.1328V49.3821H73.2459V46.25Z" fill="url(#paint2_linear_2156_15932)"/>
<path d="M72.4622 38.4199H23.9151C21.7528 38.4199 20 40.1728 20 42.335C20 44.4973 21.7528 46.2501 23.9151 46.2501H72.4622C74.6244 46.2501 76.3773 44.4973 76.3773 42.335C76.3773 40.1728 74.6244 38.4199 72.4622 38.4199Z" fill="url(#paint3_linear_2156_15932)"/>
<path d="M37.2255 57.9955C37.2255 56.6982 36.1737 55.6465 34.8764 55.6465C33.5791 55.6465 32.5273 56.6982 32.5273 57.9955V67.3918C32.5273 68.6891 33.5791 69.7408 34.8764 69.7408C36.1737 69.7408 37.2255 68.6891 37.2255 67.3918V57.9955Z" fill="url(#paint4_linear_2156_15932)"/>
<path d="M46.6219 57.9955C46.6219 56.6982 45.5702 55.6465 44.2729 55.6465C42.9755 55.6465 41.9238 56.6982 41.9238 57.9955V67.3918C41.9238 68.6891 42.9755 69.7408 44.2729 69.7408C45.5702 69.7408 46.6219 68.6891 46.6219 67.3918V57.9955Z" fill="url(#paint5_linear_2156_15932)"/>
<path d="M56.0184 57.9955C56.0184 56.6982 54.9667 55.6465 53.6694 55.6465C52.372 55.6465 51.3203 56.6982 51.3203 57.9955V67.3918C51.3203 68.6891 52.372 69.7408 53.6694 69.7408C54.9667 69.7408 56.0184 68.6891 56.0184 67.3918V57.9955Z" fill="url(#paint6_linear_2156_15932)"/>
<path d="M65.4149 57.9955C65.4149 56.6982 64.3632 55.6465 63.0658 55.6465C61.7685 55.6465 60.7168 56.6982 60.7168 57.9955V67.3918C60.7168 68.6891 61.7685 69.7408 63.0658 69.7408C64.3632 69.7408 65.4149 68.6891 65.4149 67.3918V57.9955Z" fill="url(#paint7_linear_2156_15932)"/>
<path d="M37.2255 56.4291C37.2255 55.1318 36.1737 54.0801 34.8764 54.0801C33.5791 54.0801 32.5273 55.1318 32.5273 56.4291V65.8253C32.5273 67.1227 33.5791 68.1744 34.8764 68.1744C36.1737 68.1744 37.2255 67.1227 37.2255 65.8253V56.4291Z" fill="url(#paint8_linear_2156_15932)"/>
<path d="M46.6219 56.4291C46.6219 55.1318 45.5702 54.0801 44.2729 54.0801C42.9755 54.0801 41.9238 55.1318 41.9238 56.4291V65.8253C41.9238 67.1227 42.9755 68.1744 44.2729 68.1744C45.5702 68.1744 46.6219 67.1227 46.6219 65.8253V56.4291Z" fill="url(#paint9_linear_2156_15932)"/>
<path d="M56.0184 56.4291C56.0184 55.1318 54.9667 54.0801 53.6694 54.0801C52.372 54.0801 51.3203 55.1318 51.3203 56.4291V65.8253C51.3203 67.1227 52.372 68.1744 53.6694 68.1744C54.9667 68.1744 56.0184 67.1227 56.0184 65.8253V56.4291Z" fill="url(#paint10_linear_2156_15932)"/>
<path d="M65.4149 56.4291C65.4149 55.1318 64.3632 54.0801 63.0658 54.0801C61.7685 54.0801 60.7168 55.1318 60.7168 56.4291V65.8253C60.7168 67.1227 61.7685 68.1744 63.0658 68.1744C64.3632 68.1744 65.4149 67.1227 65.4149 65.8253V56.4291Z" fill="url(#paint11_linear_2156_15932)"/>
<path d="M44.2958 29.9831C45.2132 29.0657 45.2132 27.5784 44.2958 26.661C43.3784 25.7437 41.8911 25.7437 40.9737 26.661L27.0321 40.6026C26.1148 41.52 26.1148 43.0073 27.0321 43.9247C27.9495 44.842 29.4368 44.842 30.3542 43.9247L44.2958 29.9831Z" fill="url(#paint12_linear_2156_15932)"/>
<path d="M66.0286 43.9286C66.946 44.846 68.4333 44.846 69.3507 43.9286C70.268 43.0112 70.268 41.5239 69.3507 40.6065L55.4091 26.665C54.4917 25.7476 53.0044 25.7476 52.087 26.665C51.1697 27.5823 51.1697 29.0697 52.087 29.987L66.0286 43.9286Z" fill="url(#paint13_linear_2156_15932)"/>
<path d="M78.9133 42.2731C78.9133 44.6363 78.2125 46.9465 76.8996 48.9115C75.5866 50.8765 73.7205 52.408 71.5371 53.3124C69.3537 54.2167 66.9512 54.4534 64.6334 53.9923C62.3155 53.5313 60.1864 52.3933 58.5154 50.7222C56.8443 49.0511 55.7063 46.922 55.2452 44.6042C54.7842 42.2863 55.0208 39.8838 55.9252 37.7004C56.8296 35.5171 58.3611 33.6509 60.3261 32.338C62.291 31.025 64.6012 30.3242 66.9645 30.3242C68.5336 30.3242 70.0874 30.6333 71.5371 31.2338C72.9868 31.8343 74.304 32.7144 75.4136 33.824C76.5232 34.9335 77.4033 36.2507 78.0038 37.7004C78.6043 39.1501 78.9133 40.7039 78.9133 42.2731V42.2731Z" fill="url(#paint14_linear_2156_15932)"/>
<path d="M66.9805 52.6406C64.9256 52.6437 62.9161 52.037 61.2062 50.8973C59.4964 49.7576 58.1632 48.1362 57.3754 46.2384C56.5876 44.3405 56.3807 42.2516 56.7808 40.2361C57.1809 38.2205 58.1701 36.3691 59.6231 34.9161C61.0761 33.4631 62.9276 32.4739 64.9431 32.0737C66.9586 31.6736 69.0476 31.8806 70.9454 32.6683C72.8433 33.4561 74.4647 34.7894 75.6044 36.4992C76.7441 38.209 77.3508 40.2186 77.3477 42.2735C77.3435 45.0217 76.2499 47.6563 74.3066 49.5996C72.3633 51.5429 69.7288 52.6365 66.9805 52.6406V52.6406Z" fill="url(#paint15_linear_2156_15932)"/>
<path d="M65.5859 46.7664H65.6016L72.6644 39.7036L70.7068 37.7617L65.6642 43.0079L63.2212 40.5806L61.2793 42.4598L65.5859 46.7664Z" fill="white"/>
<defs>
<linearGradient id="paint0_linear_2156_15932" x1="48.1894" y1="47.2366" x2="48.1894" y2="75.2843" gradientUnits="userSpaceOnUse">
<stop offset="0.18" stop-color="#FFC308"/>
<stop offset="1" stop-color="#DE9908"/>
</linearGradient>
<linearGradient id="paint1_linear_2156_15932" x1="55.0324" y1="45.4039" x2="73.2454" y2="45.4039" gradientUnits="userSpaceOnUse">
<stop offset="0.18" stop-color="#E5AD00"/>
<stop offset="1" stop-color="#C68600"/>
</linearGradient>
<linearGradient id="paint2_linear_2156_15932" x1="48.1894" y1="36.5719" x2="48.1894" y2="47.6751" gradientUnits="userSpaceOnUse">
<stop offset="0.18" stop-color="#E5AD00"/>
<stop offset="1" stop-color="#C68600"/>
</linearGradient>
<linearGradient id="paint3_linear_2156_15932" x1="48.0634" y1="37.3237" x2="48.3922" y2="49.8207" gradientUnits="userSpaceOnUse">
<stop offset="0.18" stop-color="#FFC308"/>
<stop offset="1" stop-color="#DE9908"/>
</linearGradient>
<linearGradient id="paint4_linear_2156_15932" x1="34.8764" y1="70.9467" x2="34.8764" y2="64.0091" gradientUnits="userSpaceOnUse">
<stop offset="0.18" stop-color="#FFC308"/>
<stop offset="1" stop-color="#DE9908"/>
</linearGradient>
<linearGradient id="paint5_linear_2156_15932" x1="44.2729" y1="70.9467" x2="44.2729" y2="64.0091" gradientUnits="userSpaceOnUse">
<stop offset="0.18" stop-color="#FFC308"/>
<stop offset="1" stop-color="#DE9908"/>
</linearGradient>
<linearGradient id="paint6_linear_2156_15932" x1="53.6694" y1="70.9467" x2="53.6694" y2="64.0091" gradientUnits="userSpaceOnUse">
<stop offset="0.18" stop-color="#FFC308"/>
<stop offset="1" stop-color="#DE9908"/>
</linearGradient>
<linearGradient id="paint7_linear_2156_15932" x1="63.0658" y1="70.9467" x2="63.0658" y2="64.0091" gradientUnits="userSpaceOnUse">
<stop offset="0.18" stop-color="#FFC308"/>
<stop offset="1" stop-color="#DE9908"/>
</linearGradient>
<linearGradient id="paint8_linear_2156_15932" x1="34.8764" y1="55.6618" x2="34.8764" y2="69.2393" gradientUnits="userSpaceOnUse">
<stop offset="0.18" stop-color="#8F6500"/>
<stop offset="1" stop-color="#774800"/>
</linearGradient>
<linearGradient id="paint9_linear_2156_15932" x1="44.2729" y1="55.6618" x2="44.2729" y2="69.2393" gradientUnits="userSpaceOnUse">
<stop offset="0.18" stop-color="#8F6500"/>
<stop offset="1" stop-color="#774800"/>
</linearGradient>
<linearGradient id="paint10_linear_2156_15932" x1="53.6694" y1="55.6618" x2="53.6694" y2="69.2393" gradientUnits="userSpaceOnUse">
<stop offset="0.18" stop-color="#8F6500"/>
<stop offset="1" stop-color="#774800"/>
</linearGradient>
<linearGradient id="paint11_linear_2156_15932" x1="63.0658" y1="55.6618" x2="63.0658" y2="69.2393" gradientUnits="userSpaceOnUse">
<stop offset="0.18" stop-color="#8F6500"/>
<stop offset="1" stop-color="#774800"/>
</linearGradient>
<linearGradient id="paint12_linear_2156_15932" x1="33.926" y1="33.5531" x2="37.2616" y2="36.8887" gradientUnits="userSpaceOnUse">
<stop stop-color="#4D4D4D"/>
<stop offset="0.18" stop-color="#808080"/>
<stop offset="1" stop-color="#4D4D4D"/>
</linearGradient>
<linearGradient id="paint13_linear_2156_15932" x1="62.392" y1="33.6353" x2="59.119" y2="36.9083" gradientUnits="userSpaceOnUse">
<stop stop-color="#4D4D4D"/>
<stop offset="0.18" stop-color="#808080"/>
<stop offset="1" stop-color="#4D4D4D"/>
</linearGradient>
<linearGradient id="paint14_linear_2156_15932" x1="66.9645" y1="33.5816" x2="66.9645" y2="47.4253" gradientUnits="userSpaceOnUse">
<stop stop-color="#7DB700"/>
<stop offset="1" stop-color="#618E00"/>
</linearGradient>
<linearGradient id="paint15_linear_2156_15932" x1="66.9648" y1="34.7252" x2="66.9648" y2="46.7523" gradientUnits="userSpaceOnUse">
<stop stop-color="#8ED000"/>
<stop offset="1" stop-color="#70A300"/>
</linearGradient>
</defs>
</svg>
