<svg xmlns="http://www.w3.org/2000/svg" viewBox="0 0 485.219 485.212">
  <g id="Simpleicons_Business_pencil-striped-symbol-for-interface-edit-buttons" transform="translate(0 -0.004)">
    <path id="Path_360" data-name="Path 360" d="M467.476,146.438l-21.445,21.455L317.35,39.23,338.8,17.773a60.666,60.666,0,0,1,85.8,0l42.886,42.9A60.7,60.7,0,0,1,467.476,146.438ZM167.233,403.748a15.16,15.16,0,0,0,21.443,21.436L424.59,189.335l-21.469-21.457ZM60,296.54a15.161,15.161,0,0,0,21.443,21.44L317.35,82.113,295.914,60.67Zm278.767-193L102.881,339.421a30.324,30.324,0,1,0,42.914,42.854L381.681,146.438ZM145.734,446.572c-7.253-7.262-10.749-16.465-12.05-25.948a61.207,61.207,0,0,1-9.36.919,59.247,59.247,0,0,1-59.792-69.385A44.982,44.982,0,0,1,38.56,339.421c-.682-.677-.917-1.6-1.538-2.338L0,485.216,147.748,448.23C147.1,447.637,146.36,447.193,145.734,446.572Z" fill="#6e32c9"/>
  </g>
</svg>
