<svg xmlns="http://www.w3.org/2000/svg" viewBox="0 0 658.29 805.165">
  <path id="bag-svgrepo-com" d="M701.69,748.714,631.8,217.548a59.588,59.588,0,0,0-20.221-37.019L529,97.944a17.587,17.587,0,0,0-12.434-5.149H490.731C477.936,39.631,430.012,0,372.981,0S268.029,39.631,255.235,92.793H229.361a17.587,17.587,0,0,0-12.434,5.149L133.71,181.159A59.519,59.519,0,0,0,114.2,217.546L44.307,748.712a49.149,49.149,0,0,0,49.508,56.453H652.18a49.151,49.151,0,0,0,49.51-56.451ZM547,165.684H494.111V127.96h15.169ZM372.981,35.167a86.06,86.06,0,0,1,85.962,85.962v44.555H287.021V121.129A86.059,86.059,0,0,1,372.981,35.167ZM236.643,127.96h15.21v37.725H198.92Zm-87.582,94.175c1.494-11.339,12.834-21.284,24.27-21.284h78.522v64.193a17.583,17.583,0,0,0,35.167,0V200.85H458.944v64.193a17.583,17.583,0,0,0,35.167,0V200.85h78.556c5.988,0,11.937,2.743,16.471,6.968l.129.129c.044.045.094.082.139.126a24.262,24.262,0,0,1,7.529,14.06l58.417,443.981H90.643ZM663.6,765.242A14.842,14.842,0,0,1,652.181,770H93.816a14.035,14.035,0,0,1-14.643-16.7l6.844-52.018H659.98l6.844,52.018A14.849,14.849,0,0,1,663.6,765.242Z" transform="translate(-43.853)"/>
</svg>
