<svg xmlns="http://www.w3.org/2000/svg" viewBox="0 0 1053.218 805.165">
  <g id="basket-svgrepo-com" transform="translate(0 -22.682)">
    <g id="Group_694" data-name="Group 694" transform="translate(0 22.682)">
      <path id="Path_387" data-name="Path 387" d="M68.2,398.449A17.537,17.537,0,0,0,85.752,380.9V108.885a17.563,17.563,0,0,0-35.126,0V380.87A17.575,17.575,0,0,0,68.2,398.449Z" transform="translate(226.192 284.043)" fill="#010002"/>
      <path id="Path_388" data-name="Path 388" d="M96.563,398.449A17.531,17.531,0,0,0,114.137,380.9V108.885a17.563,17.563,0,0,0-35.126,0V380.87A17.553,17.553,0,0,0,96.563,398.449Z" transform="translate(353.014 284.043)" fill="#010002"/>
      <path id="Path_389" data-name="Path 389" d="M124.614,398.449A17.551,17.551,0,0,0,142.166,380.9V108.885a17.552,17.552,0,0,0-35.1,0V380.87A17.525,17.525,0,0,0,124.614,398.449Z" transform="translate(478.344 284.043)" fill="#010002"/>
      <path id="Path_390" data-name="Path 390" d="M152.328,398.449A17.512,17.512,0,0,0,169.88,380.9V108.885a17.552,17.552,0,0,0-35.1,0V380.87A17.543,17.543,0,0,0,152.328,398.449Z" transform="translate(602.167 284.043)" fill="#010002"/>
      <path id="Path_391" data-name="Path 391" d="M1053.213,180.769H972.238l56.358-56.341a34.362,34.362,0,0,0,0-48.511L985.055,32.4c-12.937-12.953-35.476-12.953-48.511,0L788.194,180.769H268.934L120.562,32.4c-13.014-12.953-35.476-12.953-48.55,0L28.592,75.862a34.388,34.388,0,0,0-.022,48.55l56.38,56.336H0V347.393H74.282L176.723,827.847H846.979l131.7-480.454h74.539C1053.213,347.4,1053.213,180.769,1053.213,180.769ZM820.187,792.743H205.14l-94.753-444.41H942.061ZM1018.07,312.289H35.148V215.895H169.74L53.421,100.713,95.749,57.249,254.411,215.873H802.728L960.275,57.249l43.464,42.305L887.4,215.889h130.683v96.394h-.016Z" transform="translate(0 -22.682)" fill="#010002"/>
    </g>
  </g>
</svg>
