<svg xmlns="http://www.w3.org/2000/svg" viewBox="0 0 826.04 805.165">
  <g id="basket-svgrepo-com_1_" data-name="basket-svgrepo-com (1)" transform="translate(-2 -2.504)">
    <path id="Path_375" data-name="Path 375" d="M786.677,270.782H728.032L574.73,2.5l-71.7,40.969,129.885,227.31H197.051L326.978,43.473,255.242,2.5,101.94,270.782H43.3A41.34,41.34,0,0,0,3.442,322.943l115.6,423.893a82.8,82.8,0,0,0,79.707,60.833H631.269a82.84,82.84,0,0,0,79.707-60.916L826.572,322.9a41.216,41.216,0,0,0-39.895-52.119ZM631.227,725.071v0H198.745L97.4,353.38H732.575Z" transform="translate(0 0)"/>
    <path id="Path_376" data-name="Path 376" d="M9,13H91.6V219.495H9Zm165.2,0h82.6V219.495H174.2Z" transform="translate(282.089 422.978)"/>
  </g>
</svg>
