<svg xmlns="http://www.w3.org/2000/svg" viewBox="0 0 848.636 805.165">
  <g id="shopping-cart-svgrepo-com" transform="translate(-11 -23.6)">
    <g id="Group_693" data-name="Group 693" transform="translate(11 23.6)">
      <path id="Path_384" data-name="Path 384" d="M270.96,500.049H771.135l88.5-315.9H729.4L682.635,39.707,487.622,102.922l26.671,81.227h-9.179L456.967,39.707,261.954,102.922l26.671,81.227H184.364l-21.649-86.6C151.8,54.255,114.049,23.6,70.578,23.6H11V59.8H70.578c27.018,0,50.572,18.012,57.846,45.2L224.2,479.785a78.463,78.463,0,0,0-32.733,63.907c0,43.3,36.2,79.495,79.495,79.495H758.492v-36.2H270.96c-23.554,0-43.3-19.917-43.3-43.3,0-23.727,19.917-43.644,43.3-43.644ZM659.254,84.736l32.56,97.507H551.01L531.093,126.3Zm-225.668,0,32.56,97.507h-140.8L305.425,126.3ZM812.7,218.44,744.118,464.025H256.585L193.37,218.44H812.7Z" transform="translate(-11 -23.6)"/>
      <path id="Path_385" data-name="Path 385" d="M382.958,400.9c-41.566,0-75.858,34.292-75.858,75.858s34.292,75.858,75.858,75.858c43.3,0,75.858-34.292,75.858-75.858S424.523,400.9,382.958,400.9Zm0,117.424c-23.554,0-41.566-19.917-41.566-41.566,0-23.554,19.917-41.566,41.566-41.566,23.554,0,41.566,18.012,41.566,41.566S404.607,518.324,382.958,518.324Z" transform="translate(205.719 252.55)"/>
      <path id="Path_386" data-name="Path 386" d="M222.358,400.9c-41.566,0-75.858,34.292-75.858,75.858s34.292,75.858,75.858,75.858,75.858-34.292,75.858-75.858S263.924,400.9,222.358,400.9Zm0,117.424c-23.554,0-41.566-19.917-41.566-41.566,0-23.554,19.917-41.566,41.566-41.566s41.566,18.012,41.566,41.566S244.007,518.324,222.358,518.324Z" transform="translate(88.174 252.55)"/>
    </g>
  </g>
</svg>
