<svg xmlns="http://www.w3.org/2000/svg" viewBox="0 0 938.591 805.165">
  <g id="shopping-cart-svgrepo-com_2_" data-name="shopping-cart-svgrepo-com (2)" transform="translate(0 -43.5)">
    <g id="Group_691" data-name="Group 691" transform="translate(0 43.5)">
      <g id="Group_690" data-name="Group 690" transform="translate(226.405 118.033)">
        <path id="Path_377" data-name="Path 377" d="M267.377,507.367H740.042c26.9,0,41.351-28.9,48.9-54.912l70.869-331.993H147.627l70.851,331.993C224.111,478.774,240.484,507.367,267.377,507.367ZM665.39,422.608l48.9-230.218a24.446,24.446,0,0,1,47.826,10.154l-48.9,230.218a24.457,24.457,0,0,1-23.894,19.373,24.8,24.8,0,0,1-5.1-.538A24.445,24.445,0,0,1,665.39,422.608Zm-122.715,3.349L558.982,195.74a24.446,24.446,0,1,1,48.769,3.463L591.444,429.42a24.439,24.439,0,0,1-24.356,22.724c-.584,0-1.161-.018-1.754-.057A24.474,24.474,0,0,1,542.675,425.958ZM418.649,173.074a24.49,24.49,0,0,1,26.112,22.658l16.3,230.218A24.46,24.46,0,0,1,438.4,452.071c-.6.038-1.17.057-1.755.057A24.438,24.438,0,0,1,412.29,429.4L395.994,199.2A24.444,24.444,0,0,1,418.649,173.074Zm-158.188.48a24.448,24.448,0,0,1,28.99,18.836l48.9,230.218a24.444,24.444,0,0,1-18.845,28.99,24.174,24.174,0,0,1-5.1.538,24.468,24.468,0,0,1-23.894-19.373l-48.9-230.218A24.449,24.449,0,0,1,260.461,173.554Z" transform="translate(-147.627 -120.463)"/>
        <path id="Path_378" data-name="Path 378" d="M274.936,459.608a83.5,83.5,0,1,0,83.5,83.5A83.506,83.506,0,0,0,274.936,459.608Zm0,114.815a31.311,31.311,0,1,1,31.311-31.311A31.3,31.3,0,0,1,274.936,574.423Z" transform="translate(-124.252 60.515)"/>
        <path id="Path_379" data-name="Path 379" d="M533.576,459.608a83.5,83.5,0,1,0,83.5,83.5A83.51,83.51,0,0,0,533.576,459.608Zm0,114.815a31.311,31.311,0,1,1,31.311-31.311A31.3,31.3,0,0,1,533.576,574.423Z" transform="translate(13.761 60.515)"/>
      </g>
      <path id="Path_380" data-name="Path 380" d="M900.221,647.6H268.191a48.368,48.368,0,0,1-47.334-37.625L102.615,100.12h-74.3a28.31,28.31,0,1,1,0-56.62H109a48.394,48.394,0,0,1,47.334,37.6L274.587,590.978H900.23a28.31,28.31,0,1,1-.009,56.62Z" transform="translate(0 -43.5)"/>
    </g>
  </g>
</svg>
