<svg xmlns="http://www.w3.org/2000/svg" viewBox="0 0 807.01 805.165">
  <g id="shopping-cart-svgrepo-com_1_" data-name="shopping-cart-svgrepo-com (1)" transform="translate(0 -0.561)">
    <g id="Group_692" data-name="Group 692" transform="translate(0 0.561)">
      <path id="Path_381" data-name="Path 381" d="M772.667.561H625.273c-15.446,0-27.441,10.352-32.535,23.991L455.7,458.026H162.714L80.554,216.477H388.982a34.343,34.343,0,0,0,0-68.686H34.216c-30.4,1.479-38.122,29.577-32.535,42.887L106.188,502.392c5.094,13.639,18.9,22.347,32.535,22.347H479.686c15.446,0,29.085-8.545,32.535-22.347L649.264,68.918h123.4a34.179,34.179,0,1,0,0-68.357Z" transform="translate(0 -0.561)"/>
      <path id="Path_382" data-name="Path 382" d="M146.124,357.161c-59.977,0-109.6,49.624-109.6,109.6s49.624,109.6,109.6,109.6,109.6-49.625,109.6-109.6S206.1,357.161,146.124,357.161ZM187.2,468.405c0,23.991-18.9,42.887-41.08,42.887-22.347,0-41.08-18.9-41.08-42.887s18.9-42.887,41.08-42.887C170.115,425.682,189.011,444.415,187.2,468.405Z" transform="translate(23.491 228.802)"/>
      <path id="Path_383" data-name="Path 383" d="M308.724,357.161c-59.977,0-109.6,49.624-109.6,109.6s49.624,109.6,109.6,109.6a109.259,109.259,0,0,0,109.6-109.6C418.489,406.785,368.7,357.161,308.724,357.161Zm41.244,111.244c0,23.991-18.9,42.887-41.08,42.887s-41.08-18.9-41.08-42.887,18.9-42.887,41.08-42.887C332.715,425.682,351.611,444.415,349.968,468.405Z" transform="translate(128.074 228.802)"/>
    </g>
  </g>
</svg>
