<svg xmlns="http://www.w3.org/2000/svg" viewBox="0 0 511.994 512.001">
  <g id="cross-svgrepo-com" transform="translate(-0.002)">
    <path id="Path_374" data-name="Path 374" d="M301.666,256,508.649,49.029a11.426,11.426,0,0,0,0-16.149L479.129,3.344a11.433,11.433,0,0,0-16.159,0L255.993,210.321,49.016,3.344a11.756,11.756,0,0,0-16.154,0L3.347,32.88a11.417,11.417,0,0,0,0,16.149L210.324,256,3.347,462.972a11.417,11.417,0,0,0,0,16.149l29.52,29.536a11.426,11.426,0,0,0,16.154,0L256,301.68,462.975,508.657a11.433,11.433,0,0,0,16.159,0l29.52-29.536a11.426,11.426,0,0,0,0-16.149Z"/>
  </g>
</svg>
