<svg xmlns="http://www.w3.org/2000/svg" viewBox="0 0 418.91 512.001">
  <g id="bin-svgrepo-com" transform="translate(-46.545)">
    <g id="Group_678" data-name="Group 678">
      <g id="Group_677" data-name="Group 677">
        <path id="Path_365" data-name="Path 365" d="M395.636,279.273h-54.3V512h54.3a23.275,23.275,0,0,0,23.273-23.273V279.273Z"/>
      </g>
    </g>
    <g id="Group_680" data-name="Group 680">
      <g id="Group_679" data-name="Group 679">
        <path id="Path_366" data-name="Path 366" d="M217.212,279.273V512h77.576V279.273Z"/>
      </g>
    </g>
    <g id="Group_682" data-name="Group 682">
      <g id="Group_681" data-name="Group 681">
        <path id="Path_367" data-name="Path 367" d="M139.636,279.273H93.091V488.728A23.275,23.275,0,0,0,116.364,512h54.3V279.273Z"/>
      </g>
    </g>
    <g id="Group_684" data-name="Group 684">
      <g id="Group_683" data-name="Group 683">
        <path id="Path_368" data-name="Path 368" d="M442.182,186.182H418.909V116.364a23.273,23.273,0,0,0-23.273-23.273H356.848V23.273A23.272,23.272,0,0,0,333.576,0H178.424a23.273,23.273,0,0,0-23.273,23.273V93.091H116.363A23.273,23.273,0,0,0,93.09,116.364v69.818H69.818a23.273,23.273,0,1,0,0,46.546H442.182a23.273,23.273,0,1,0,0-46.546ZM310.3,93.091H201.7V46.545H310.3Z"/>
      </g>
    </g>
  </g>
</svg>
