<svg xmlns="http://www.w3.org/2000/svg" viewBox="0 0 512.009 512.001">
  <g id="cancel-close-svgrepo-com" transform="translate(0 -0.004)">
    <g id="Group_686" data-name="Group 686" transform="translate(0 0.004)">
      <g id="Group_685" data-name="Group 685">
        <path id="Path_371" data-name="Path 371" d="M437.025,74.988c-99.97-99.979-262.071-99.979-362.041,0-99.979,99.961-99.979,262.063,0,362.033s262.071,99.979,362.041,0C537,337.059,537,174.958,437.025,74.988Zm-18.1,343.933c-89.985,89.968-235.857,89.968-325.842,0-89.968-89.976-89.968-235.848,0-325.833,89.985-89.968,235.857-89.968,325.842,0C508.893,183.073,508.893,328.944,418.925,418.921Z" transform="translate(0 -0.004)"/>
      </g>
    </g>
    <g id="Group_688" data-name="Group 688" transform="translate(152.694 152.692)">
      <g id="Group_687" data-name="Group 687">
        <path id="Path_372" data-name="Path 372" d="M274.1,256.006l81.46-81.46a12.8,12.8,0,1,0-18.1-18.1L256,237.906l-81.46-81.46a12.8,12.8,0,0,0-18.1,18.1l81.46,81.46-81.46,81.46a12.8,12.8,0,0,0,18.1,18.1L256,274.1l81.46,81.46a12.8,12.8,0,0,0,18.1-18.1Z" transform="translate(-152.692 -152.689)"/>
      </g>
    </g>
  </g>
</svg>
