<svg width="100" height="100" viewBox="0 0 100 100" fill="none" xmlns="http://www.w3.org/2000/svg">
<rect width="100" height="100" rx="50" fill="#6E32C9"/>
<circle cx="50.5" cy="50.5" r="31.5" fill="#F0C419"/>
<path d="M52.9993 56.9992C53.2645 56.9992 53.5189 56.8938 53.7064 56.7063C53.8939 56.5187 53.9993 56.2644 53.9993 55.9992V53.9992C53.9993 53.734 53.8939 53.4796 53.7064 53.2921C53.5189 53.1045 53.2645 52.9992 52.9993 52.9992C52.7341 52.9992 52.4797 53.1045 52.2922 53.2921C52.1047 53.4796 51.9993 53.734 51.9993 53.9992V55.9992C51.9993 56.2644 52.1047 56.5187 52.2922 56.7063C52.4797 56.8938 52.7341 56.9992 52.9993 56.9992ZM48.9993 56.9992C49.2645 56.9992 49.5189 56.8938 49.7064 56.7063C49.8939 56.5187 49.9993 56.2644 49.9993 55.9992V53.9992C49.9993 53.734 49.8939 53.4796 49.7064 53.2921C49.5189 53.1045 49.2645 52.9992 48.9993 52.9992C48.7341 52.9992 48.4797 53.1045 48.2922 53.2921C48.1047 53.4796 47.9993 53.734 47.9993 53.9992V55.9992C47.9993 56.2644 48.1047 56.5187 48.2922 56.7063C48.4797 56.8938 48.7341 56.9992 48.9993 56.9992ZM57.9993 44.9992H56.6193L54.8893 41.5492C54.8364 41.4222 54.758 41.3075 54.6588 41.2123C54.5596 41.1171 54.4418 41.0433 54.3128 40.9956C54.1839 40.9479 54.0464 40.9274 53.9091 40.9352C53.7718 40.9431 53.6376 40.9791 53.5149 41.0412C53.3922 41.1032 53.2836 41.1899 53.1959 41.2958C53.1082 41.4018 53.0433 41.5246 53.0052 41.6568C52.9672 41.7889 52.9568 41.9275 52.9747 42.0638C52.9926 42.2002 53.0384 42.3313 53.1093 42.4492L54.3793 44.9992H47.6193L48.8893 42.4492C48.9864 42.2161 48.9917 41.9549 48.9041 41.7181C48.8166 41.4812 48.6427 41.2863 48.4174 41.1723C48.192 41.0584 47.9319 41.0339 47.6893 41.1038C47.4467 41.1737 47.2395 41.3328 47.1093 41.5492L45.3793 44.9992H43.9993C43.2925 45.0099 42.6122 45.2699 42.0784 45.7333C41.5445 46.1967 41.1915 46.8337 41.0815 47.532C40.9715 48.2303 41.1116 48.945 41.4771 49.55C41.8426 50.1551 42.41 50.6116 43.0793 50.8392L43.8193 58.2992C43.8939 59.0417 44.2426 59.7298 44.7974 60.2291C45.3521 60.7283 46.073 61.0029 46.8193 60.9992H55.1993C55.9456 61.0029 56.6665 60.7283 57.2212 60.2291C57.776 59.7298 58.1247 59.0417 58.1993 58.2992L58.9393 50.8392C59.61 50.611 60.1784 50.1527 60.5436 49.5457C60.9089 48.9386 61.0475 48.2218 60.9349 47.5223C60.8223 46.8228 60.4658 46.1858 59.9285 45.7239C59.3912 45.2621 58.7078 45.0054 57.9993 44.9992ZM56.1893 58.0992C56.1644 58.3467 56.0482 58.5761 55.8633 58.7425C55.6784 58.9089 55.4381 59.0004 55.1893 58.9992H46.8093C46.5605 59.0004 46.3202 58.9089 46.1353 58.7425C45.9504 58.5761 45.8342 58.3467 45.8093 58.0992L45.0993 50.9992H56.8993L56.1893 58.0992ZM57.9993 48.9992H43.9993C43.7341 48.9992 43.4797 48.8938 43.2922 48.7063C43.1047 48.5187 42.9993 48.2644 42.9993 47.9992C42.9993 47.734 43.1047 47.4796 43.2922 47.2921C43.4797 47.1045 43.7341 46.9992 43.9993 46.9992H57.9993C58.2645 46.9992 58.5189 47.1045 58.7064 47.2921C58.8939 47.4796 58.9993 47.734 58.9993 47.9992C58.9993 48.2644 58.8939 48.5187 58.7064 48.7063C58.5189 48.8938 58.2645 48.9992 57.9993 48.9992Z" fill="white"/>
<circle cx="26" cy="30" r="10" fill="#FF4A62"/>
<path d="M24.0703 28.4609H25.1953C25.6328 28.4609 25.9948 28.3854 26.2812 28.2344C26.5729 28.0833 26.7891 27.875 26.9297 27.6094C27.0703 27.3438 27.1406 27.0391 27.1406 26.6953C27.1406 26.3359 27.0755 26.0286 26.9453 25.7734C26.8203 25.513 26.6276 25.3125 26.3672 25.1719C26.112 25.0312 25.7865 24.9609 25.3906 24.9609C25.0573 24.9609 24.7552 25.0286 24.4844 25.1641C24.2188 25.2943 24.0078 25.4818 23.8516 25.7266C23.6953 25.9661 23.6172 26.2526 23.6172 26.5859H21.7266C21.7266 25.9818 21.8854 25.4453 22.2031 24.9766C22.5208 24.5078 22.9531 24.1406 23.5 23.875C24.0521 23.6042 24.6719 23.4688 25.3594 23.4688C26.0938 23.4688 26.7344 23.5911 27.2812 23.8359C27.8333 24.0755 28.263 24.4349 28.5703 24.9141C28.8776 25.3932 29.0312 25.987 29.0312 26.6953C29.0312 27.0182 28.9557 27.3464 28.8047 27.6797C28.6536 28.013 28.4297 28.3177 28.1328 28.5938C27.8359 28.8646 27.4661 29.0859 27.0234 29.2578C26.5807 29.4245 26.0677 29.5078 25.4844 29.5078H24.0703V28.4609ZM24.0703 29.9297V28.8984H25.4844C26.151 28.8984 26.7188 28.9766 27.1875 29.1328C27.6615 29.2891 28.0469 29.5052 28.3438 29.7812C28.6406 30.0521 28.8568 30.362 28.9922 30.7109C29.1328 31.0599 29.2031 31.4297 29.2031 31.8203C29.2031 32.3516 29.1068 32.8255 28.9141 33.2422C28.7266 33.6536 28.4583 34.0026 28.1094 34.2891C27.7604 34.5755 27.3516 34.7917 26.8828 34.9375C26.4193 35.0833 25.9141 35.1562 25.3672 35.1562C24.8776 35.1562 24.4089 35.0885 23.9609 34.9531C23.513 34.8177 23.112 34.6172 22.7578 34.3516C22.4036 34.0807 22.1224 33.7448 21.9141 33.3438C21.7109 32.9375 21.6094 32.4688 21.6094 31.9375H23.4922C23.4922 32.276 23.5703 32.5755 23.7266 32.8359C23.888 33.0911 24.112 33.2917 24.3984 33.4375C24.6901 33.5833 25.0234 33.6562 25.3984 33.6562C25.7943 33.6562 26.1354 33.5859 26.4219 33.4453C26.7083 33.3047 26.9271 33.0964 27.0781 32.8203C27.2344 32.5443 27.3125 32.2109 27.3125 31.8203C27.3125 31.3776 27.2266 31.0182 27.0547 30.7422C26.8828 30.4661 26.638 30.263 26.3203 30.1328C26.0026 29.9974 25.6276 29.9297 25.1953 29.9297H24.0703Z" fill="white"/>
</svg>
