<svg xmlns="http://www.w3.org/2000/svg" viewBox="0 0 10.809 13.499">
  <g id="copy-svgrepo-com" transform="translate(-48.65)">
    <g id="Group_478" data-name="Group 478" transform="translate(48.65)">
      <path id="Path_176" data-name="Path 176" d="M55.993,85.4H49.717a1.068,1.068,0,0,0-1.067,1.067v9a1.068,1.068,0,0,0,1.067,1.067h6.275a1.068,1.068,0,0,0,1.067-1.067v-9A1.071,1.071,0,0,0,55.993,85.4Zm.318,10.068a.321.321,0,0,1-.321.321H49.714a.321.321,0,0,1-.321-.321v-9a.321.321,0,0,1,.321-.321H55.99a.321.321,0,0,1,.321.321Z" transform="translate(-48.65 -83.039)" fill="#6E32C9"/>
      <path id="Path_177" data-name="Path 177" d="M142.792,0h-6.275a1.068,1.068,0,0,0-1.067,1.067.373.373,0,0,0,.746,0,.321.321,0,0,1,.321-.321h6.275a.321.321,0,0,1,.321.321v9a.321.321,0,0,1-.321.321.373.373,0,1,0,0,.746,1.068,1.068,0,0,0,1.067-1.067v-9A1.068,1.068,0,0,0,142.792,0Z" transform="translate(-133.05)" fill="#6E32C9"/>
    </g>
  </g>
</svg>
