<svg viewBox="0 0 292 46" fill="none" xmlns="http://www.w3.org/2000/svg">
<path d="M26.285 1.486L31.692 12.442C32.068 13.204 32.795 13.732 33.636 13.854L45.727 15.611C47.845 15.919 48.69 18.521 47.158 20.014L38.409 28.542C37.801 29.135 37.523 29.99 37.667 30.827L39.732 42.869C40.094 44.978 37.88 46.586 35.986 45.591L25.172 39.906C24.42 39.511 23.521 39.511 22.769 39.906L11.955 45.591C10.061 46.587 7.847 44.978 8.209 42.869L10.274 30.827C10.418 29.99 10.14 29.135 9.532 28.542L0.783001 20.014C-0.748999 18.52 0.0960009 15.918 2.214 15.611L14.305 13.854C15.146 13.732 15.873 13.204 16.249 12.442L21.656 1.486C22.602 -0.432997 25.338 -0.432997 26.285 1.486Z" fill="#C8C8C8"/>
<path d="M87.2844 1.43925L92.6914 12.3953C93.0674 13.1573 93.7944 13.6853 94.6354 13.8073L106.726 15.5642C108.844 15.8722 109.689 18.4743 108.157 19.9673L99.4084 28.4953C98.8004 29.0883 98.5224 29.9433 98.6664 30.7803L100.731 42.8223C101.093 44.9313 98.8794 46.5393 96.9854 45.5443L86.1714 39.8592C85.4194 39.4642 84.5204 39.4642 83.7684 39.8592L72.9544 45.5443C71.0604 46.5403 68.8464 44.9313 69.2084 42.8223L71.2734 30.7803C71.4174 29.9433 71.1394 29.0883 70.5314 28.4953L61.7824 19.9673C60.2504 18.4733 61.0954 15.8713 63.2134 15.5642L75.3044 13.8073C76.1454 13.6853 76.8724 13.1573 77.2484 12.3953L82.6554 1.43925C83.6014 -0.47975 86.3374 -0.47975 87.2844 1.43925Z" fill="#C8C8C8"/>
<path d="M148.284 1.43925L153.691 12.3953C154.067 13.1573 154.794 13.6853 155.635 13.8073L167.726 15.5642C169.844 15.8722 170.689 18.4743 169.157 19.9673L160.408 28.4953C159.8 29.0883 159.522 29.9433 159.666 30.7803L161.731 42.8223C162.093 44.9313 159.879 46.5393 157.985 45.5443L147.171 39.8592C146.419 39.4642 145.52 39.4642 144.768 39.8592L133.954 45.5443C132.06 46.5403 129.846 44.9313 130.208 42.8223L132.273 30.7803C132.417 29.9433 132.139 29.0883 131.531 28.4953L122.782 19.9673C121.25 18.4733 122.095 15.8713 124.213 15.5642L136.304 13.8073C137.145 13.6853 137.872 13.1573 138.248 12.3953L143.655 1.43925C144.601 -0.47975 147.337 -0.47975 148.284 1.43925Z" fill="#C8C8C8"/>
<path d="M209.284 1.43925L214.691 12.3953C215.067 13.1573 215.794 13.6853 216.635 13.8073L228.726 15.5642C230.844 15.8722 231.689 18.4743 230.157 19.9673L221.408 28.4953C220.8 29.0883 220.522 29.9433 220.666 30.7803L222.731 42.8223C223.093 44.9313 220.879 46.5393 218.985 45.5443L208.171 39.8592C207.419 39.4642 206.52 39.4642 205.768 39.8592L194.954 45.5443C193.06 46.5403 190.846 44.9313 191.208 42.8223L193.273 30.7803C193.417 29.9433 193.139 29.0883 192.531 28.4953L183.782 19.9673C182.25 18.4733 183.095 15.8713 185.213 15.5642L197.304 13.8073C198.145 13.6853 198.872 13.1573 199.248 12.3953L204.655 1.43925C205.601 -0.47975 208.337 -0.47975 209.284 1.43925Z" fill="#C8C8C8"/>
<path d="M270.284 1.43925L275.691 12.3953C276.067 13.1573 276.794 13.6853 277.635 13.8073L289.726 15.5642C291.844 15.8722 292.689 18.4743 291.157 19.9673L282.408 28.4953C281.8 29.0883 281.522 29.9433 281.666 30.7803L283.731 42.8223C284.093 44.9313 281.879 46.5393 279.985 45.5443L269.171 39.8592C268.419 39.4642 267.52 39.4642 266.768 39.8592L255.954 45.5443C254.06 46.5403 251.846 44.9313 252.208 42.8223L254.273 30.7803C254.417 29.9433 254.139 29.0883 253.531 28.4953L244.782 19.9673C243.25 18.4733 244.095 15.8713 246.213 15.5642L258.304 13.8073C259.145 13.6853 259.872 13.1573 260.248 12.3953L265.655 1.43925C266.601 -0.47975 269.337 -0.47975 270.284 1.43925Z" fill="#C8C8C8"/>
</svg>
