<svg id="icon" xmlns="http://www.w3.org/2000/svg" width="100" height="100" viewBox="0 0 100 100">
  <rect id="Rectangle_247" width="100" height="100" rx="50" fill="#6e32c9"/>
  <path id="Path_367" d="M22.4,54.465H49.847a6.018,6.018,0,0,1-4.066-2.122,1.053,1.053,0,0,0-.143-.147,4.076,4.076,0,0,0-.347-.224c-.062-.031-.127-.064-.191-.1a7.948,7.948,0,0,0-1.057-.45l-.01,0a6.581,6.581,0,0,0-1.4-.352A5.958,5.958,0,0,0,41.882,51a.223.223,0,0,1-.033,0l-.305-.01a.159.159,0,0,1-.029,0c-.924-.034-1.46-.119-1.919-.774l.026,0,.031,0a2.141,2.141,0,0,0,1.555-.634,2.035,2.035,0,0,1,.407-.284h0a3.311,3.311,0,0,1,1.646-.24l.009,0a1.111,1.111,0,0,0-.9-.491,8.745,8.745,0,0,0-1.672.188,8.6,8.6,0,0,1-6.619-.41,1.268,1.268,0,0,1-.284-.2c-.157-.141-.164-.236.1-.253a14.023,14.023,0,0,0,2.65-.476,16.346,16.346,0,0,1,3.541-1.395,2.28,2.28,0,0,1,1.412.14c.505.022.2-.276-.009-.372a4.906,4.906,0,0,0-3.71-.148l-.026.009-.079.022c-.731.228-1.448.486-2.189.676a8.208,8.208,0,0,1-1.546.257,7.4,7.4,0,0,1-5.111-1.491,7.7,7.7,0,0,1-2.294-2.569c.045-.012.091-.04.109-.029a0,0,0,0,0,0,0,2.756,2.756,0,0,0,1.088.522.006.006,0,0,0,.005,0,6.512,6.512,0,0,0,2.865.06.156.156,0,0,0,.026,0,13.3,13.3,0,0,0,2.06-.579.048.048,0,0,1,.015,0c.807-.279,1.653-.593,2.567-.831a10.807,10.807,0,0,1,3.155-.379,10.113,10.113,0,0,1,2.767.5,3.714,3.714,0,0,0-2.382-2.25,4.425,4.425,0,0,0-3.722-.314l-.017,0c.043-.047.086-.09.129-.133A6.073,6.073,0,0,1,37.066,37.8l.062-.026c.024-.01.048-.019.071-.029a5.355,5.355,0,0,1,4.923.809c1.651,1.11,3.427,1.367,3.918.689-2.112-2.015-1.877-2.924-1.8-3.86a.245.245,0,0,0,.033.09l.041.069a4.581,4.581,0,0,0,.731.915s0,0,.005.005c.029.024.055.05.084.074a5.108,5.108,0,0,0,1.408.867c.091.038.185.074.281.107.046.017.095.033.143.048a.11.11,0,0,0,.026.007,8.653,8.653,0,0,0,2.9.453c.2,0,.405-.015.622-.035a9.435,9.435,0,0,1,2.132-.241,9.408,9.408,0,0,1,4.863,1.351,9.157,9.157,0,0,1,1.317.974,1.436,1.436,0,0,0,2.384-1.029q0-4.37,0-8.74c0-1.574-.74-2.293-2.37-2.293Q40.608,28,22.374,28C20.731,28,20,28.718,20,30.29V52.16C20,53.787,20.7,54.463,22.4,54.465Z" fill="#ffc977"/>
  <path id="Path_368" d="M78.868,45.989a4.958,4.958,0,0,0-.776-2.739,19.771,19.771,0,0,0-4.771-5.116,10.234,10.234,0,0,0-4.678-2.474,41.118,41.118,0,0,0-5.077-.121c-.033,0-.065.048-.157.117v.719q0,6.873-.005,13.746a7.768,7.768,0,0,1-.109,1.6,5.589,5.589,0,0,1-5.773,4.52q-10.938.01-21.873,0H35a9.9,9.9,0,0,1,7.55,7.547,3.147,3.147,0,0,0,.314.029c4.237,0,8.472,0,12.709.01.39,0,.483-.16.583-.5A9.462,9.462,0,0,1,72.79,59.874a9.73,9.73,0,0,1,1.844,3.949c.7,0,1.364,0,2.029,0,1.5-.005,2.191-.7,2.191-2.219C78.856,56.4,78.84,51.195,78.868,45.989ZM66.6,49.606V40.264c5.835-.7,9.238,3.849,9.136,9.341Z" fill="#ffc977"/>
  <path id="Path_369" d="M33.266,59.955a5.717,5.717,0,1,0,5.68,5.74A5.744,5.744,0,0,0,33.266,59.955Z" fill="#ffc977"/>
  <path id="Path_370" d="M65.357,59.955a5.717,5.717,0,1,0,5.657,5.737A5.689,5.689,0,0,0,65.357,59.955Z" fill="#ffc977"/>
  <path id="Path_371" d="M30.3,56.244c-3.418-.086-6.845.2-10.288-.188,0,2-.022,4.039.01,6.076a1.783,1.783,0,0,0,1.665,1.674c.726.04,1.457.009,2.222.009a9.809,9.809,0,0,1,7.583-7.53C31.069,56.246,30.683,56.255,30.3,56.244Z" fill="#ffc977"/>
  <path id="Path_372" d="M59.206,46.56a6.784,6.784,0,1,0-6.781,6.78A6.784,6.784,0,0,0,59.206,46.56ZM51.977,51.9a5.306,5.306,0,0,1-4.928-4.911h.484v-.836l-.455-.029a5.236,5.236,0,0,1,4.906-4.908c.009.145.017.291.026.455h.817c.009-.152.017-.305.024-.457,2.2-.212,4.98,2.543,4.923,4.9l-.495.031v.812c.157.007.317.015.479.024a5.3,5.3,0,0,1-4.908,4.927c-.009-.178-.016-.333-.024-.5h-.808C52.006,51.574,51.99,51.736,51.977,51.9Z" fill="#ffc977"/>
  <path id="Path_373" d="M58.865,52.184a7.908,7.908,0,0,0-9.574-12.439,7.533,7.533,0,0,1,9,2.143,7.453,7.453,0,0,1,.465,8.676,7.294,7.294,0,0,1-3.482,2.908,7.521,7.521,0,0,1-5.844-.057A7.812,7.812,0,0,0,58.865,52.184Z" fill="#fff"/>
  <path id="Path_374" d="M53.29,46.479a.971.971,0,0,1,.046-.738c.09-.262.181-.522.269-.784q.334-.99.665-1.984a.27.27,0,0,0-.035-.014c-.038.057-.079.112-.112.171-.479.821-.96,1.638-1.432,2.463a.785.785,0,0,1-.415.383.7.7,0,0,0-.359.924.744.744,0,0,0,.886.415A.69.69,0,0,0,53.29,46.479Z" fill="#fff"/>
  <path id="Path_375" d="M52.208,42.344h-.062v.743c.021,0,.041,0,.062,0Z" fill="#fff"/>
  <path id="Path_376" d="M50.058,44.019c-.167-.186-.333-.374-.5-.56-.028.026-.057.05-.085.076q.246.282.491.567Z" fill="#fff"/>
  <path id="Path_377" d="M54.986,43.2l-.1-.083L54.4,43.7l.1.084C54.66,43.595,54.822,43.4,54.986,43.2Z" fill="#fff"/>
  <path id="Path_378" d="M54.769,49.075l.491.588.1-.078q-.246-.295-.491-.591C54.838,49.022,54.8,49.048,54.769,49.075Z" fill="#fff"/>
  <path id="Path_379" d="M51.152,50.575l.112.041c.086-.236.171-.474.257-.71l-.121-.043C51.318,50.1,51.235,50.339,51.152,50.575Z" fill="#fff"/>
  <path id="Path_380" d="M50.687,42.7c.084.236.171.472.255.708l.121-.045-.26-.7C50.765,42.678,50.725,42.69,50.687,42.7Z" fill="#fff"/>
  <path id="Path_381" d="M55.969,44.278c-.019-.033-.04-.065-.059-.1l-.658.377.067.114C55.536,44.54,55.752,44.409,55.969,44.278Z" fill="#fff"/>
  <path id="Path_382" d="M49.332,44.986l-.66-.384-.062.107.657.39Z" fill="#fff"/>
  <path id="Path_383" d="M55.79,45.764l.734-.121c-.005-.038-.009-.077-.014-.115l-.739.124C55.776,45.688,55.783,45.726,55.79,45.764Z" fill="#fff"/>
  <path id="Path_384" d="M48.973,46.136l-.743-.126c0,.038-.009.076-.012.114l.738.131C48.961,46.215,48.968,46.175,48.973,46.136Z" fill="#fff"/>
  <path id="Path_385" d="M53.776,49.744c.084.234.167.469.252.7l.117-.045c-.086-.233-.172-.467-.257-.7C53.852,49.715,53.814,49.729,53.776,49.744Z" fill="#fff"/>
  <path id="Path_386" d="M55.508,48.128l.652.371.064-.109-.655-.372C55.548,48.056,55.527,48.092,55.508,48.128Z" fill="#fff"/>
  <path id="Path_387" d="M49.027,47.336l-.727.131c.007.038.015.078.022.116l.728-.131C49.043,47.414,49.036,47.376,49.027,47.336Z" fill="#fff"/>
  <path id="Path_388" d="M55.857,46.968c.243.045.486.09.729.133l.021-.116-.731-.14C55.869,46.887,55.862,46.928,55.857,46.968Z" fill="#fff"/>
  <path id="Path_389" d="M53.683,42.537l-.114-.045c-.086.233-.171.467-.257.7l.114.041C53.511,43,53.6,42.77,53.683,42.537Z" fill="#fff"/>
  <path id="Path_390" d="M49.846,49.9l.1.083.486-.574-.095-.083C50.17,49.514,50.008,49.7,49.846,49.9Z" fill="#fff"/>
  <path id="Path_391" d="M48.855,48.82c.021.038.043.076.064.114l.662-.388c-.021-.036-.041-.074-.064-.11C49.3,48.563,49.075,48.691,48.855,48.82Z" fill="#fff"/>
  <path id="Path_392" d="M52.633,50.765l.055,0v-.74l-.055,0Z" fill="#fff"/>
</svg>
