<svg xmlns="http://www.w3.org/2000/svg" viewBox="0 0 980.004 974.604">
  <g id="_2a2dd56a1822ccb0ba3b2231b09e1c2c" data-name="2a2dd56a1822ccb0ba3b2231b09e1c2c" transform="translate(-9.998 -12.698)">
    <path id="Path_360" data-name="Path 360" d="M905.3,407.7H584.1l.6-310.3c0-.3-.1-.4-.1-.7V91.8h-.5C580.8,48,543.7,13,499.2,12.7a83.21,83.21,0,0,0-83.8,77.9h-.6l.1,317H93.5C47.1,407.3,9.7,445.5,10,492a85.452,85.452,0,0,0,84.7,84.7l320.1-.3.1,326.2a85.452,85.452,0,0,0,84.7,84.7,82.7,82.7,0,0,0,83.5-83.5l.6-327.5,322.8-.3A82.724,82.724,0,0,0,990,492.4,85.452,85.452,0,0,0,905.3,407.7Z"/>
  </g>
</svg>
