<svg width="100" height="100" viewBox="0 0 100 100" fill="none" xmlns="http://www.w3.org/2000/svg">
<rect width="100" height="100" rx="50" fill="#6E32C9"/>
<path fill-rule="evenodd" clip-rule="evenodd" d="M21 33H80V43C76.134 43 73 46.134 73 50C73 53.866 76.134 57 80 57V68H21V57C24.866 57 28 53.866 28 50C28 46.134 24.866 43 21 43V33Z" fill="#F0C419"/>
<rect x="32.6" y="37.6" width="34.8" height="25.8" stroke="white" stroke-width="1.2" stroke-dasharray="3 3"/>
<circle cx="50.5" cy="50.5" r="9.5" fill="#FAFAFA"/>
<path d="M49.5881 56.0909V45.1818H50.2869V56.0909H49.5881ZM51.6037 48.6719C51.5639 48.2997 51.3963 48.0099 51.1009 47.8026C50.8082 47.5952 50.4276 47.4915 49.9588 47.4915C49.6293 47.4915 49.3466 47.5412 49.1108 47.6406C48.875 47.7401 48.6946 47.875 48.5696 48.0455C48.4446 48.2159 48.3807 48.4105 48.3778 48.6293C48.3778 48.8111 48.419 48.9687 48.5014 49.1023C48.5866 49.2358 48.7017 49.3494 48.8466 49.4432C48.9915 49.5341 49.152 49.6108 49.3281 49.6733C49.5043 49.7358 49.6818 49.7884 49.8608 49.831L50.679 50.0355C51.0085 50.1122 51.3253 50.2159 51.6293 50.3466C51.9361 50.4773 52.2102 50.642 52.4517 50.8409C52.696 51.0398 52.8892 51.2798 53.0312 51.5611C53.1733 51.8423 53.2443 52.1719 53.2443 52.5497C53.2443 53.0611 53.1136 53.5114 52.8523 53.9006C52.5909 54.2869 52.2131 54.5895 51.7188 54.8082C51.2273 55.0241 50.6321 55.1321 49.9332 55.1321C49.2543 55.1321 48.6648 55.027 48.1648 54.8168C47.6676 54.6065 47.2784 54.2997 46.9972 53.8963C46.7188 53.4929 46.5682 53.0014 46.5455 52.4219H48.1009C48.1236 52.7259 48.2173 52.9787 48.3821 53.1804C48.5469 53.3821 48.7614 53.5327 49.0256 53.6321C49.2926 53.7315 49.5909 53.7812 49.9205 53.7812C50.2642 53.7812 50.5653 53.7301 50.8239 53.6278C51.0852 53.5227 51.2898 53.3778 51.4375 53.1932C51.5852 53.0057 51.6605 52.7869 51.6634 52.5369C51.6605 52.3097 51.5938 52.1222 51.4631 51.9744C51.3324 51.8239 51.1491 51.6989 50.9134 51.5994C50.6804 51.4972 50.4077 51.4062 50.0952 51.3267L49.1023 51.071C48.3835 50.8864 47.8153 50.6065 47.3977 50.2315C46.983 49.8537 46.7756 49.3523 46.7756 48.7273C46.7756 48.2131 46.9148 47.7628 47.1932 47.3764C47.4744 46.9901 47.8565 46.6903 48.3395 46.4773C48.8224 46.2614 49.3693 46.1534 49.9801 46.1534C50.5994 46.1534 51.142 46.2614 51.608 46.4773C52.0767 46.6903 52.4446 46.9872 52.7116 47.3679C52.9787 47.7457 53.1165 48.1804 53.125 48.6719H51.6037Z" fill="#E7B700"/>
<circle cx="75.5" cy="35.5" r="7.5" fill="white"/>
<circle cx="75.5" cy="35.5" r="4.5" stroke="#4FBA6F" stroke-linecap="round"/>
<path d="M74 35.9339L74.7076 36.9111C74.7874 37.0213 74.9361 37.0304 75.0264 36.9307L77 34.75" stroke="#4FBA6F" stroke-linecap="round"/>
</svg>
