<svg xmlns="http://www.w3.org/2000/svg" viewBox="0 0 420.459 499.295">
  <path id="Delete-button" d="M306.962,63.452c1.009,3.563,5.072,6.449,9.134,6.449H394.64c14.264,0,25.819,10.428,25.819,23.3,0,10.636-7.894,19.582-18.642,22.39L388.331,450.225c-1.093,27.225-26.192,49.07-56.447,49.07H88.576c-30.2,0-55.353-21.869-56.448-49.07L18.643,115.592C7.9,112.783,0,103.838,0,93.2,0,80.329,11.555,69.9,25.818,69.9h78.546c4.063,0,8.155-2.939,9.134-6.449L119,43.506C125.831,18.854,152.571,0,180.694,0h59.07c28.153,0,54.863,18.853,61.692,43.506ZM191.791,176.419V402.766c0,9.179,8.27,16.642,18.441,16.642s18.441-7.463,18.441-16.642V176.419c0-9.18-8.27-16.643-18.441-16.643S191.791,167.239,191.791,176.419Zm-84.83.494,7.376,226.347c.317,9.179,8.817,16.408,18.989,16.148,10.172-.286,18.182-7.957,17.894-17.136l-7.377-226.347c-.317-9.18-8.817-16.409-18.989-16.149C114.683,160.062,106.673,167.733,106.961,176.913Zm169.662-.988-7.376,226.345c-.289,9.182,7.721,16.853,17.893,17.139,10.17.26,18.671-6.969,18.989-16.151L313.5,176.912c.286-9.18-7.723-16.851-17.9-17.137C285.439,159.515,276.938,166.745,276.623,175.925ZM168.592,69.9h83.274c2.017,0,3.285-1.43,2.8-3.2l-3.314-11.911c-1.066-3.9-7.146-8.192-11.583-8.192h-59.07c-4.437,0-10.518,4.291-11.583,8.192L165.8,66.7c-.49,1.794.778,3.2,2.8,3.2Z" fill="#eb5757"/>
</svg>
